PathFileType	4	(X/Y/Z)	c:/Users/goper/Files/vsCode/490R/osim_files/C04/C04_Fast_05.trc
DataRate	CameraRate	NumFrames	NumMarkers	Units                	OrigDataRate	OrigDataStartFrame	OrigNumFrames
250.00	250.00	9	36	mm	250.0	1319	2637
                Frame#	Time	LPSIS			LASIS			LTH1			LTH2			LTH3			LTH4			LLFE			LMFE			LSH1			LSH2			LSH3			LSH4			LLMAL			LMMAL			LCAL			LMTP5			LTOE			LMTP1			RPSIS			RASIS			RTH1			RTH2			RTH3			RTH4			RLFE			RMFE			RSH1			RSH2			RSH3			RSH4			RLMAL			RMMAL			RCAL			RMTP1			RTOE			RMTP5		
		X1	Y1	Z1	X2	Y2	Z2	X3	Y3	Z3	X4	Y4	Z4	X5	Y5	Z5	X6	Y6	Z6	X7	Y7	Z7	X8	Y8	Z8	X9	Y9	Z9	X10	Y10	Z10	X11	Y11	Z11	X12	Y12	Z12	X13	Y13	Z13	X14	Y14	Z14	X15	Y15	Z15	X16	Y16	Z16	X17	Y17	Z17	X18	Y18	Z18	X19	Y19	Z19	X20	Y20	Z20	X21	Y21	Z21	X22	Y22	Z22	X23	Y23	Z23	X24	Y24	Z24	X25	Y25	Z25	X26	Y26	Z26	X27	Y27	Z27	X28	Y28	Z28	X29	Y29	Z29	X30	Y30	Z30	X31	Y31	Z31	X32	Y32	Z32	X33	Y33	Z33	X34	Y34	Z34	X35	Y35	Z35	X36	Y36	Z36

1319	5.27200	-1704.00464	954.28259	285.91403	-1908.48022	938.65381	324.55182	-1852.46838	684.32031	406.28452	-1876.41382	620.23120	380.69736	-1915.11780	706.72180	395.17151	-1944.30884	655.74182	374.08124	-1936.54333	450.63074	354.86072	-1929.63110	443.27374	240.40990	0.00000	0.00000	0.00000	-1890.23621	294.13257	360.07056	0.00000	0.00000	0.00000	-1985.82031	285.31097	352.55280	-1928.46082	64.41468	323.56689	-1919.44958	85.19133	240.20302	-1852.20837	36.49621	282.26077	-2071.20581	12.88278	312.38095	-2074.97754	49.86559	268.68582	-2043.05518	17.13385	219.86212	-1697.83887	951.07495	210.75273	0.00000	0.00000	0.00000	-1741.85681	691.32141	80.49276	-1745.93494	629.35583	93.32116	-1809.60632	696.85486	77.43845	-1822.27930	636.32971	87.73495	-1782.91821	419.55109	111.67357	-1821.68616	400.76144	215.12056	-1651.66577	375.68192	107.77435	-1623.10657	341.46057	117.20846	-1691.03613	322.79581	99.74373	-1655.43176	299.79831	110.22974	-1460.91370	194.46153	145.96159	-1483.02319	197.29311	231.73418	-1410.10376	243.69984	190.36949	-1489.97681	55.23629	241.34648	0.00000	0.00000	0.00000	-1460.94226	49.87450	149.42050
1320	5.27600	-1708.69177	954.53809	285.96710	-1913.25232	938.99908	324.64468	-1856.44153	684.56812	406.31940	-1879.26001	622.15613	382.13168	-1920.00269	707.97919	394.88190	-1948.29065	655.24957	374.12402	-1938.69434	449.93851	355.08386	-1931.96826	443.08429	240.47688	0.00000	0.00000	0.00000	-1892.14465	294.23566	359.91559	0.00000	0.00000	0.00000	-1987.83521	284.84558	352.31052	-1928.67139	64.50145	323.40628	-1919.74890	85.08276	240.08954	-1852.30615	36.63991	282.23105	-2063.37280	18.32008	317.74149	-2075.05029	49.46800	268.43796	-2043.13794	16.54904	219.77248	-1702.48254	951.12036	210.80951	0.00000	0.00000	0.00000	-1747.97009	690.68066	80.79710	-1752.84338	628.53925	93.46075	-1815.68530	696.89771	77.60345	-1829.00977	636.48358	87.70371	-1792.26001	419.38788	111.05480	-1831.53833	400.77319	214.78326	-1661.55090	376.64905	107.36389	-1632.79504	342.73022	116.86500	-1700.42200	323.41547	99.03760	-1664.61279	300.76981	109.68260	-1469.12292	198.21997	145.62108	-1491.68835	200.77696	231.11174	-1419.72681	248.91208	189.83025	-1495.51306	58.38483	240.69345	0.00000	0.00000	0.00000	-1465.08667	53.10755	149.46501
1321	5.28000	-1713.35010	954.88800	286.05042	-1918.03381	939.31384	324.90442	-1860.29102	684.54810	405.95309	-1882.70642	622.10327	381.76083	-1924.11792	707.51868	395.08063	-1951.99548	654.77411	374.42633	-1941.03723	449.21320	355.27979	-1934.11108	442.99133	240.54233	0.00000	0.00000	0.00000	-1893.94397	294.33588	359.70084	0.00000	0.00000	0.00000	-1989.59814	284.36752	352.05322	-1928.74573	64.55862	323.28854	-1919.98181	84.93294	239.96268	-1852.39001	36.74850	282.18787	-2063.38574	18.23263	317.62015	-2075.05811	49.07286	268.16922	-2043.17920	16.00150	219.62703	-1707.21924	951.26349	210.90263	0.00000	0.00000	0.00000	-1753.98840	690.04675	81.08191	-1759.54614	627.97516	93.53304	-1820.46997	696.87463	78.11932	-1835.60718	636.71136	87.65956	-1801.79321	419.33286	110.55722	-1841.67493	400.82025	214.25577	-1671.55542	377.61963	106.97530	-1642.50342	343.88638	116.44821	-1710.01196	324.07184	98.58028	-1674.11963	301.76315	109.17691	-1477.60547	201.78830	145.26756	-1500.22180	204.44812	230.62483	-1429.62634	253.83969	189.32382	-1501.74292	61.19195	239.83813	0.00000	0.00000	0.00000	-1469.61841	56.37127	149.55669
1322	5.28400	-1718.21021	955.05444	286.33728	-1922.88428	939.44366	325.04428	-1863.94763	684.61530	405.61295	-1885.78882	622.05481	381.30829	-1927.98511	706.98633	395.24530	-1955.31177	654.31427	374.63425	-1943.15210	448.52191	355.39203	-1936.08899	442.90295	240.57545	0.00000	0.00000	0.00000	-1895.53796	294.49536	359.47504	0.00000	0.00000	0.00000	-1991.25366	283.89606	351.76550	-1928.80933	64.61505	323.17383	-1920.28845	84.76637	239.88441	-1852.44299	36.84218	282.14661	-2063.44189	18.04268	317.56317	-2075.02539	48.60628	267.91565	-2043.19482	15.47527	219.42197	-1712.11475	951.24280	211.13226	0.00000	0.00000	0.00000	-1760.05042	689.51520	81.48994	-1766.31018	627.48535	93.66279	-1826.34900	697.03003	78.31489	-1843.60657	637.14514	87.45071	-1811.54358	419.29565	110.08102	-1851.60913	400.98248	213.89099	-1681.54785	378.69547	106.51356	-1652.32825	344.98712	115.98290	-1719.85620	325.01233	98.14780	-1683.75513	302.66891	108.76364	-1486.31555	205.23706	145.03320	-1509.37708	207.74361	230.12056	-1439.44470	258.50748	188.92358	-1508.42432	63.82114	239.01526	0.00000	0.00000	0.00000	-1474.73474	59.50420	149.57341
1323	5.28800	-1722.80090	955.43292	286.52307	-1927.83325	939.33704	324.85770	-1867.37927	684.69458	405.56808	-1889.04651	621.92090	380.79590	-1931.68323	706.49786	395.52573	-1958.87634	653.63812	374.56525	-1945.50024	447.92325	355.48312	-1937.88782	442.77774	240.64162	0.00000	0.00000	0.00000	-1896.98975	294.55804	359.25967	0.00000	0.00000	0.00000	-1992.96069	283.61221	351.65137	-1928.85413	64.61974	323.08853	-1920.46252	84.62304	239.74657	-1852.48254	36.92426	282.09814	-2063.54321	17.86798	317.46994	-2075.04761	48.19853	267.69763	-2043.19714	14.88270	219.32268	-1716.62415	951.44800	211.29172	0.00000	0.00000	0.00000	-1766.06104	689.13416	81.75393	-1772.97583	627.04675	93.82909	-1832.24158	697.25897	78.55340	-1848.84863	637.23260	87.74195	-1820.94348	419.47528	109.58208	-1857.03345	403.63275	216.54593	-1691.65198	379.59583	106.05035	-1662.22876	346.10391	115.47833	-1729.62915	325.64926	97.71134	-1693.18127	303.60324	108.34422	-1495.01062	208.34419	144.84364	-1518.15601	210.81683	229.81006	-1449.33521	262.60724	188.69403	-1515.49512	66.17523	238.00612	0.00000	0.00000	0.00000	-1480.30981	62.53151	149.38161
1324	5.29200	-1727.40210	955.69727	286.73257	-1932.88831	939.22284	324.74524	0.00000	0.00000	0.00000	0.00000	0.00000	0.00000	-1935.35620	706.12946	395.69397	-1961.98071	653.11029	374.96716	-1947.63562	447.37256	355.54260	-1939.56958	442.54321	240.66653	0.00000	0.00000	0.00000	-1898.43750	294.57874	359.09729	0.00000	0.00000	0.00000	-1994.65527	283.38492	351.58807	-1928.91052	64.58905	323.05429	-1920.62720	84.51429	239.57605	-1852.56165	36.94690	282.09262	-2063.57324	17.67950	317.42514	-2075.19189	47.79874	267.57748	-2043.30518	14.43327	219.19124	-1721.20996	951.58954	211.50647	0.00000	0.00000	0.00000	-1772.05481	688.77954	82.05429	-1779.68250	626.70435	93.87355	-1831.95227	700.55450	75.09887	-1855.29614	637.72626	87.65707	-1830.84265	419.63672	109.11342	-1864.56116	403.61267	216.57669	-1701.84241	380.46494	105.55019	-1672.14722	347.26556	114.92526	-1739.41858	326.17975	97.43624	-1701.61536	304.45865	108.30052	-1503.60510	211.31296	144.57820	-1527.69006	213.13603	229.49329	-1459.07117	266.10080	188.86728	-1523.18909	68.58260	237.14293	0.00000	0.00000	0.00000	-1486.72864	65.80116	148.82594
1325	5.29600	-1732.14392	956.03021	286.96811	-1937.75342	939.22540	325.00827	0.00000	0.00000	0.00000	0.00000	0.00000	0.00000	-1938.91101	705.74817	396.02530	-1965.28979	652.44812	375.14493	-1949.90076	446.88956	355.55533	-1941.19812	442.42023	240.50656	0.00000	0.00000	0.00000	-1899.76538	294.53171	359.00937	0.00000	0.00000	0.00000	-1995.88635	283.03336	351.52917	-1929.27441	64.36224	322.92969	-1920.74414	84.38229	239.43835	-1852.69080	36.92505	282.11917	-2063.67749	17.49060	317.41287	-2075.32300	47.40827	267.49847	-2043.30762	13.97000	219.09280	-1725.85095	951.66962	211.79646	0.00000	0.00000	0.00000	-1778.05603	688.47211	82.33796	-1786.37256	626.29755	94.09403	-1844.04907	697.90918	78.97085	-1861.78247	638.28082	87.72477	-1840.28442	420.06683	108.62541	-1876.43225	404.45648	216.10745	-1711.97473	381.39001	105.04057	-1682.14026	348.40921	114.32359	-1749.37622	326.90378	97.31288	-1711.58740	305.35684	107.97868	-1512.30408	214.30457	144.36714	-1550.35693	206.64055	220.08458	-1468.32019	269.16196	189.36749	-1531.71289	70.76426	236.38707	0.00000	0.00000	0.00000	-1494.40491	68.99390	148.03938
1326	5.30000	-1736.86035	956.35718	287.34821	-1942.54407	939.22192	325.11050	0.00000	0.00000	0.00000	0.00000	0.00000	0.00000	-1942.28503	705.46912	396.27145	-1968.08154	652.78705	378.01474	-1952.31836	446.53378	355.51691	-1942.88782	442.32135	240.43826	-1940.19092	310.40247	381.84497	-1901.12427	294.52863	358.89142	0.00000	0.00000	0.00000	-1997.26868	282.80951	351.58804	-1929.45300	64.30251	322.87204	-1920.82947	84.29305	239.29030	-1852.78333	36.96640	282.07327	-2063.80664	17.27482	317.34384	-2075.52197	47.02405	267.45062	-2043.28455	13.65720	218.96471	-1730.47437	951.94989	212.11037	0.00000	0.00000	0.00000	-1784.08105	688.31689	82.59106	-1792.30249	626.85492	93.10686	-1849.95923	698.37848	79.00627	-1869.72632	639.02448	87.41158	-1850.06018	420.55258	108.26382	-1885.93066	405.08298	215.94006	-1722.19873	382.31104	104.47233	-1692.12231	349.52231	113.73872	-1759.36230	327.57257	97.22318	-1722.58521	306.32397	107.45606	-1520.80603	217.21584	144.22287	-1559.84668	208.88493	220.02678	-1477.43250	271.65607	190.01707	-1541.17773	72.81429	235.50928	0.00000	0.00000	0.00000	-1502.93359	71.84137	147.18169
1327	5.30400	-1741.28638	956.77472	287.62677	-1947.48389	939.15930	324.92456	0.00000	0.00000	0.00000	0.00000	0.00000	0.00000	-1945.49829	703.91455	397.44144	-1971.20337	652.82098	378.10782	-1954.81750	446.37421	355.36740	-1944.55420	442.13559	240.46471	-1941.57166	310.00281	381.68738	-1902.46313	294.51407	358.81198	0.00000	0.00000	0.00000	-1998.35669	282.50507	351.67780	-1929.50513	64.31551	322.83127	-1920.94995	84.21511	239.19885	-1852.86145	37.03952	282.04471	-2063.87158	17.13689	317.30319	-2075.60181	46.61938	267.36917	-2043.32703	13.26418	218.88507	-1735.02344	952.27283	212.41898	0.00000	0.00000	0.00000	-1790.02380	688.20972	82.73357	-1799.66772	625.99982	94.16851	0.00000	0.00000	0.00000	-1876.26611	639.68958	87.36014	-1859.62366	421.26791	107.83060	-1895.43152	405.86520	215.74590	-1732.32922	383.25638	103.84689	-1702.06055	350.62125	113.19154	-1769.30359	328.30792	97.04963	-1733.30823	307.34094	107.02762	-1529.51257	219.84315	144.17986	-1569.32739	210.77237	219.71214	-1486.16895	273.77866	190.65320	-1551.55896	74.37702	234.25041	0.00000	0.00000	0.00000	-1512.11011	74.48283	146.23335
